<svg id="Layer_1" data-name="Layer 1" xmlns="http://www.w3.org/2000/svg" viewBox="0 0 400 300" width="406" height="306" class="illustration styles_illustrationTablet__1DWOa"><title>#21 videocall</title><path d="M54.64,177.44c0-1.51-23.2-48,23.2-78.88s78.08-28.73,110.34-7.5S423,77.31,341.53,240.12l-57.67,6.25-155.31-4.12Z" fill="#e6e6e6" opacity="0.18"></path><path d="M335.54,224S323,220.6,320.17,208.91c0,0,19.47-4,20.1,16.09Z" fill="#68e1fd" opacity="0.58"></path><path d="M337.08,222.73s-8.84-13.85-1.17-26.87c0,0,14.85,9.35,8.35,26.87Z" fill="#68e1fd" opacity="0.73"></path><path d="M339.34,222.73s4.58-14.69,18.6-17.52c0,0,2.67,9.51-9,17.52Z" fill="#68e1fd"></path><polygon points="330.22 222.44 332.84 239.86 348.9 239.86 351.19 222.44 330.22 222.44" fill="#24285b"></polygon><polygon points="290.73 239.86 303.06 198.07 243.17 198.07 234.48 232.17 212.78 233.33 212.78 239.86 290.73 239.86" fill="#c9c9c9"></polygon><rect x="40.27" y="239.86" width="327.73" height="13.02" fill="#e6e6e6"></rect><rect x="40.27" y="252.89" width="327.73" height="11.66" fill="#a5a5a5" opacity="0.4"></rect><path d="M94.12,168.29s23.62-17,51.18-13.47,38.14,10.44,40.09,42.83-13.29,66.89-13.29,66.89l-45.18-.41Z" fill="#68e1fd"></path><path d="M111.18,159.52s22.84,11.93,25.18,42.66,6.48,52.78,39.49,52.62l-3.75,9.74-45.18-.41-32.8-95.84S104.53,161.73,111.18,159.52Z" opacity="0.08"></path><path d="M35.47,264.13h91.44s2.11-51.68-14.19-81.36S-7.66,156.17,35.47,264.13Z" fill="#24285b"></path><polygon points="118.13 141.63 123.75 155.81 111.18 159.52 107.7 138.39 118.13 141.63" fill="#f4a28c"></polygon><path d="M102.74,127.4c2.33-5.86,10.08-7.13,14.43-2.57,4.78,5,10.56,13,4.16,17.4-9.8,6.79-19-5.62-19-5.62A15.94,15.94,0,0,1,102.74,127.4Z" fill="#f4a28c"></path><path d="M106.34,136.13s-3.15-1-3,2.23,4.78,2.83,5.43.92S106.34,136.13,106.34,136.13Z" fill="#f4a28c"></path><path d="M146.2,181c-2.27-13.73,13.21-23.42,24.59-15.41,7.31,5.15,14.26,13.17,18,25.68,10.36,34.41,28.92,55,76.52,43.31l2.85,12.28S163,282.47,146.2,181Z" fill="#f4a28c"></path><path d="M100.44,133.17s2.52,11.11,8.37,11.09,5.39-3.77,4.19-11.09,7.49-5.15,6.32-13.51-1.73-8-9.38-7.51S92.59,119.11,100.44,133.17Z" fill="#ffd200"></path><path d="M268.79,233s5.67-3.27,10.64-2,5.61,8.41.89,10.73l-9.45,4.64Z" fill="#f4a28c"></path><rect x="200.8" y="50.61" width="141.32" height="108.14" fill="#24285b"></rect><polygon points="276.85 61.01 285.67 80.43 274.19 88.94 271.91 70.67 276.85 61.01" fill="#f4a28c"></polygon><path d="M272,71.19s7.21-1.12,8.13-3.25c0,0,6.06,10.93-7,12Z" fill="#ce8172" opacity="0.31"></path><path d="M267.19,95.52s-58.37,49.34-79.92-9.42l-10,6s7,74.37,94.72,40.61Z" fill="#68e1fd"></path><path d="M267.19,95.52s-58.37,49.34-79.92-9.42l-10,6s7,74.37,94.72,40.61Z" fill="#fff" opacity="0.2"></path><path d="M274.19,88.94s-22.39,16.57-15.32,35.61S282,158.75,282,158.75h60.14s-.65-14.85-2.4-31.09c-2.52-23.37-11-50.45-54.05-47.23Z" fill="#68e1fd"></path><path d="M307.38,95.52s-8,8.07-4.69,18.3,14.37,42.78-10.35,39.7l19.93,2.41,20.82-2.41,9.17-21.68L326.08,109Z" opacity="0.08"></path><polygon points="220.83 65.16 220.83 94.71 250.72 78.65 220.83 65.16" fill="#fff"></polygon><polygon points="257.49 158.75 248.24 122.72 299.88 122.72 304.88 152.12 326.08 153.12 326.08 158.75 257.49 158.75" fill="#ffd200"></polygon><polygon points="249.28 203.77 241.76 230.71 284.86 230.71 292.21 203.77 249.28 203.77" fill="#fff"></polygon><circle cx="277.85" cy="140.46" r="4.38" fill="#fff"></circle><path d="M179,91.08s-8.35-8.17-4.34-14.66,13.6-5.47,12.6,9.68Z" fill="#f4a28c"></path><path d="M322.19,88c7.63,3.36,15.6,9.13,20.07,19.06l-.14,51.74H331.76l-4.36-8.9s5.34-21.54-11.52-38.07a63.12,63.12,0,0,1-6.65-7.59C302.76,95.35,312.17,83.54,322.19,88Z" fill="#68e1fd"></path><path d="M322.19,88c7.63,3.36,15.6,9.13,20.07,19.06l-.14,51.74H331.76l-4.36-8.9s5.34-21.54-11.52-38.07a63.12,63.12,0,0,1-6.65-7.59C302.76,95.35,312.17,83.54,322.19,88Z" fill="#fff" opacity="0.2"></path><path d="M280.07,62.62a47.21,47.21,0,0,0,0,5.32c.18,2.44-.22,6.12-4,7.23-5.78,1.72-8.34-7.44-8.34-7.44s-4.64-8.35,1.62-10.23C275.05,55.81,280.39,54.46,280.07,62.62Z" fill="#f4a28c"></path><path d="M264.3,54.53a6.1,6.1,0,0,0-2.92,3.21,3.88,3.88,0,0,0,.64,4.19c2.65,2.77,5.77,5.8,5.77,5.8S265.39,63,269.62,63s7.86,2.81,10.45-.39,4.27-5,3.1-8-1-6.94-5.59-5.22-2.81-1.82-5.42-4.1-6.83-1.94-6.46,1.26C266,49.33,266.93,53.08,264.3,54.53Z" fill="#ffd200"></path><path d="M268.2,68.07s-.64-2.8-3.09-2.42S264.18,71.22,268.2,68.07Z" fill="#f4a28c"></path><path d="M279.21,68.1s-1.16-2.62,1-3.78S284.32,68.24,279.21,68.1Z" fill="#f4a28c"></path><path d="M157.56,215.4l33.84-16.34s-4.28-37.09-33.84-39.54S147,204.91,157.56,215.4Z" fill="#68e1fd"></path><path d="M157.56,215.4l33.84-16.34s-4.28-37.09-33.84-39.54S147,204.91,157.56,215.4Z" fill="#fff" opacity="0.2"></path><polygon points="260.93 211.04 257.92 222.39 274.96 216.72 260.93 211.04" fill="#a5a5a5"></polygon><path d="M331.76,158.75a10.4,10.4,0,0,0-9.32-10.37c-3-.3-5.67.15-6.38,2.48-1.76,5.77,10,7.89,10,7.89Z" fill="#f4a28c"></path><path d="M111.18,159.52l5.11-1.5L112.8,143s-6.84-2.39-6.75-11.41c0,0-8.51-7.32,1.15-19,0,0-8.63,1.54-9.64,10.26a19.15,19.15,0,0,0,2.88,10.34s2.54,11.11,8.37,11.09Z" fill="#ce8172" opacity="0.31"></path><rect x="261.46" y="233.4" width="9.02" height="15.42" transform="translate(-50.71 72.04) rotate(-14.1)" fill="#24285b"></rect><circle cx="265.97" cy="241.11" r="5.73" fill="#ffd200"></circle><path d="M169.9,209.44s17.07,51.37,92.16,34.62l1.08,4.29s-75.27,23.26-105.58-32.95Z" fill="#ce8172" opacity="0.31"></path><path d="M169.9,209.44l-12.34,6s-25.7-35.84-11.58-52.8C146,162.6,151.57,195,169.9,209.44Z" opacity="0.08"></path><path d="M284.45,77.74S272.38,82,271.91,90.83c0,0,12.42-.75,18.28-10.63A5.3,5.3,0,0,0,284.45,77.74Z" fill="#fff"></path></svg>